<svg width="1648" height="1640" fill="none" xmlns="http://www.w3.org/2000/svg"><path d="M528.451 280.102c-28.692 112.579-23.266 183.161 16.275 211.745 59.313 42.877 200.347 60.027 259.299 153.038 58.95 93.008 238.695 21.106 269.435-138.527 30.74-159.632 86.09-405.678-205.768-405.678-194.576 0-307.654 59.806-339.24 179.422h-.001z" fill="#FFFA72"/><path d="M50.671 502.382c-80.337 315.221-65.144 512.848 45.57 592.888 166.077 120.05 560.972 168.07 726.038 428.5 165.06 260.43 668.351 59.1 754.421-387.87C1662.78 688.928 1817.76 0 1000.55 0 455.733 0 139.115 167.457 50.674 502.382h-.003z" fill="#E7E8E9"/><path d="M90.486 483.858c-76.034 298.335-61.655 485.377 43.129 561.122 157.179 113.63 530.919 159.07 687.142 405.55 156.218 246.47 632.543 55.93 714.013-367.09C1616.23 660.411 1762.91 8.39 989.475 8.39c-515.627 0-815.283 158.486-898.986 475.468h-.003z" fill="#C4C5C9"/><path d="M130.301 465.335c-71.73 281.448-58.165 457.902 40.688 529.363 148.282 107.192 500.867 150.072 648.247 382.592 147.375 232.52 596.744 52.77 673.594-346.31 76.85-399.085 215.23-1014.2-514.426-1014.2-486.44 0-769.135 149.515-848.1 448.555h-.003z" fill="#A0A3A9"/><path d="M170.116 446.812c-67.426 264.561-54.675 430.428 38.246 497.601 139.386 100.757 470.816 141.067 609.353 359.637 138.532 218.57 560.935 49.6 633.175-325.536C1523.14 603.378 1653.21 25.17 967.332 25.17c-457.253 0-722.986 140.544-797.214 421.642h-.002z" fill="#585D68"/><path d="M209.931 428.288c-63.122 247.674-51.185 402.954 35.805 465.84C376.225 988.456 686.5 1026.19 816.194 1230.81c129.69 204.62 525.136 46.43 592.766-304.758 67.63-351.191 189.4-892.492-452.698-892.492-428.068 0-676.839 131.573-746.328 394.728h-.003z" fill="#111827"/><path d="M249.746 409.765c-58.818 230.787-47.695 375.48 33.364 434.078 121.591 87.897 410.711 123.055 531.563 313.727C935.52 1348.24 1304 1200.84 1367.02 873.591 1430.04 546.344 1543.51 41.95 945.19 41.95c-398.881 0-630.691 122.602-695.442 367.815h-.002z" fill="#0A0E17"/><path d="M289.561 391.242c-54.515 213.9-44.206 348.006 30.922 402.316 112.695 81.466 380.66 114.051 492.668 290.772 112.005 176.72 453.529 40.1 511.929-263.201C1383.49 517.827 1488.65 50.34 934.119 50.34c-369.695 0-584.543 113.632-644.556 340.902h-.002z" fill="#080C13"/><path d="M329.376 372.718c-50.211 197.014-40.715 320.532 28.481 370.555 103.798 75.034 350.608 105.047 453.774 267.817 103.162 162.76 417.719 36.93 471.519-242.423C1336.94 489.31 1433.8 58.73 923.048 58.73c-340.508 0-538.395 104.661-593.67 313.988h-.002z" fill="#070B10"/><path d="M369.191 354.195c-45.907 180.127-37.226 293.058 26.04 338.793 94.901 68.602 320.555 96.043 414.878 244.859 94.32 148.813 381.911 33.77 431.101-221.642S1378.95 67.12 911.976 67.12c-311.321 0-492.246 95.69-542.784 287.075h-.001z" fill="#06090B"/><path d="M409.006 335.672c-41.603 163.24-33.736 265.583 23.599 307.031 86.004 62.171 290.503 87.039 375.983 221.904 85.478 134.862 346.112 30.604 390.682-200.863C1243.85 432.277 1324.1 75.51 900.906 75.51c-282.136 0-446.099 86.719-491.898 260.162h-.002z" fill="#050908"/><path d="M448.821 317.149c-37.3 146.353-30.246 238.109 21.157 275.269 77.107 55.739 260.451 78.035 337.089 198.948 76.635 120.911 310.303 27.438 350.273-180.084C1197.3 403.76 1269.25 83.9 889.834 83.9c-252.949 0-399.95 77.748-441.012 233.249h-.001z" fill="#040605"/><path d="M488.636 298.625c-32.996 129.466-26.756 210.636 18.716 243.508 68.21 49.308 230.399 69.03 298.194 175.992 67.792 106.96 274.504 24.273 309.854-159.305 35.35-183.577 99-466.53-236.637-466.53-223.763 0-353.802 68.777-390.126 206.335h-.001z" fill="#030503"/></svg>
